<svg width="215" height="821" viewBox="0 0 215 821" fill="none" xmlns="http://www.w3.org/2000/svg">
<g fill-rule="evenodd" clip-rule="evenodd" fill="#C3D5C0">
<path d="M159.241 476.284C164.452 497.129 169.664 525.792 172.269 549.244C174.875 554.455 174.875 567.484 182.692 562.272C185.298 562.272 182.692 546.638 182.692 544.032C182.692 523.186 185.298 507.552 187.903 486.707C190.509 447.621 169.664 434.592 161.846 400.718C156.635 392.901 156.635 395.507 156.635 403.324C151.424 431.987 151.424 445.015 159.241 476.284Z"/>
<path d="M221.778 153.176C213.961 163.598 216.566 187.05 216.566 200.078C221.778 228.741 276.498 205.29 289.526 189.656C281.709 181.838 232.201 145.359 221.778 153.176Z"/>
<path d="M208.748 194.867C208.748 187.05 211.354 150.57 200.931 150.57C190.508 150.57 146.211 181.838 135.788 189.656C138.394 194.867 203.537 236.558 208.748 194.867Z"/>
<path d="M219.171 319.941C216.565 332.97 213.96 372.055 221.777 382.478C229.594 392.901 234.805 377.267 237.411 372.055C240.017 361.632 253.045 312.124 242.623 309.518C232.2 304.307 224.383 312.124 219.171 319.941Z"/>
<path d="M180.086 314.73C177.48 325.153 185.297 387.69 200.931 385.084C213.96 385.084 208.748 332.97 206.143 325.153C200.931 306.913 182.691 304.307 180.086 314.73Z"/>
<path d="M117.549 260.01C127.972 246.981 135.789 220.924 138.395 202.684C138.395 197.473 130.578 192.261 125.366 192.261C107.126 202.684 112.338 192.261 104.52 218.318C101.915 226.136 94.0976 262.615 109.732 265.221C112.338 265.221 114.943 262.615 117.549 260.01Z"/>
<path d="M161.845 606.569C156.634 622.203 177.479 695.163 182.691 716.009C182.691 718.615 195.719 781.152 198.325 770.729C200.931 768.123 187.902 731.643 187.902 723.826C182.691 692.558 187.902 637.838 172.268 611.781C169.662 606.569 167.056 603.963 161.845 606.569Z"/>
<path d="M151.423 296.49C148.817 306.913 146.211 335.575 154.028 343.392C156.634 348.604 174.874 366.844 174.874 351.21C174.874 343.392 174.874 330.364 172.268 325.152C172.268 312.124 172.268 291.278 159.24 286.067C151.423 280.855 151.423 291.278 151.423 296.49Z"/>
<path d="M143.606 471.072C143.606 484.101 154.028 536.215 161.846 546.638C161.846 549.244 156.634 523.186 156.634 517.975C146.211 460.649 148.817 431.987 154.028 374.661C156.634 348.604 151.423 343.392 146.211 374.661C141 413.747 141 431.987 143.606 471.072Z"/>
<path d="M229.594 570.089C242.623 572.695 234.805 491.918 232.2 481.495C229.594 465.861 206.143 567.484 229.594 570.089Z"/>
<path d="M190.508 497.129C190.508 502.341 180.085 585.724 200.931 567.484C216.565 554.455 195.719 468.467 193.114 484.101C190.508 486.707 190.508 494.524 190.508 497.129Z"/>
<path d="M47.1947 372.055C49.8004 372.055 86.2803 312.124 88.8861 306.912C94.0975 296.49 94.0975 278.25 91.4918 265.221C88.8861 257.404 75.8575 288.673 75.8575 288.673C62.8289 319.941 68.0404 340.787 44.589 372.055C41.9833 374.661 47.1947 372.055 47.1947 372.055Z"/>
<path d="M146.211 142.753C135.788 150.57 120.154 166.204 114.943 181.838C109.731 192.261 112.337 194.867 122.76 189.656C138.394 181.838 148.817 163.599 154.028 150.57C159.24 140.147 154.028 140.147 146.211 142.753Z"/>
<path d="M203.537 491.918C211.354 520.581 198.325 463.255 198.325 463.255C187.903 431.987 174.874 398.112 161.846 366.844C156.634 356.421 159.24 366.844 159.24 372.055C161.846 411.141 190.508 452.832 203.537 491.918Z"/>
<path d="M177.48 299.095C182.691 301.701 200.931 309.518 206.142 304.307C211.354 299.095 213.96 267.827 185.297 278.25C177.48 280.855 174.874 288.673 177.48 299.095Z"/>
<path d="M172.269 723.826C172.269 729.038 182.692 773.335 185.298 773.335C187.904 773.335 177.481 726.432 177.481 721.22C177.481 718.615 159.241 616.992 156.635 650.866C154.029 666.501 167.058 702.98 172.269 723.826Z"/>
<path d="M206.143 252.193C190.509 228.741 164.452 275.644 182.692 273.038C198.326 270.433 213.96 273.038 206.143 252.193Z"/>
<path d="M23.7434 413.747C28.9548 418.958 55.0119 424.169 55.0119 413.747C55.0119 408.535 52.4062 400.718 52.4062 387.69C52.4062 374.661 49.8005 387.69 39.3776 392.901C34.1662 398.112 10.7148 405.929 23.7434 413.747Z"/>
<path d="M159.241 166.204C174.875 155.781 177.48 155.781 193.115 147.964C206.143 140.147 172.269 132.33 159.241 153.176C138.395 181.838 125.366 197.473 159.241 166.204Z"/>
<path d="M112.337 150.57C104.52 160.993 101.914 179.233 101.914 192.261C107.125 189.656 117.548 166.204 122.76 158.387C125.365 155.781 138.394 142.753 138.394 142.753C138.394 137.541 120.154 142.753 112.337 150.57Z"/>
<path d="M221.778 233.953C229.595 239.164 258.258 254.798 247.835 233.953C234.806 213.107 208.749 218.318 221.778 233.953Z"/>
<path d="M206.142 223.53C193.114 213.107 172.268 233.953 177.48 244.375C180.085 249.587 203.537 236.558 206.142 233.953C208.748 228.741 208.748 226.135 206.142 223.53Z"/>
<path d="M161.846 549.244C164.452 554.455 167.058 562.272 169.663 567.484C174.875 567.484 172.269 554.455 169.663 549.244C164.452 494.524 143.606 413.747 159.241 531.004C161.846 536.215 161.846 544.032 161.846 549.244Z"/>
<path d="M200.932 411.141C190.509 431.987 190.509 431.987 198.326 455.438C203.537 465.861 203.537 460.649 206.143 450.227C206.143 442.409 211.355 400.718 206.143 400.718C206.143 400.718 203.537 408.535 200.932 411.141Z"/>
<path d="M185.298 390.295C180.086 403.324 180.086 405.929 187.903 418.958C190.509 426.775 195.72 416.352 198.326 411.141C203.538 400.718 203.538 392.901 190.509 387.69C185.298 385.084 185.298 385.084 185.298 390.295Z"/>
<path d="M216.566 127.119C208.748 174.021 234.806 114.09 237.411 106.273C242.623 88.0329 237.411 82.8215 229.594 103.667C224.383 108.879 219.171 119.301 216.566 127.119Z"/>
<path d="M195.721 121.907C219.172 171.416 211.355 127.119 198.326 106.273C195.721 98.4557 193.115 93.2443 187.904 88.0329C185.298 95.85 190.509 114.09 195.721 121.907Z"/>
<path d="M200.932 583.118C195.72 603.964 185.297 619.598 190.509 640.443C190.509 640.443 195.72 624.809 195.72 619.598C203.537 601.358 208.749 588.329 206.143 570.089C203.537 559.666 200.932 583.118 200.932 583.118Z"/>
<path d="M237.411 12.4673C237.411 7.25588 232.2 2.04446 226.988 2.04446C211.354 -3.16696 213.96 4.65017 213.96 15.073C211.354 30.7073 216.565 15.073 232.2 22.8901C237.411 22.8901 234.805 17.6787 237.411 12.4673Z"/>
<path d="M190.508 20.2844C190.508 25.4959 198.326 17.6787 206.143 22.8901C213.96 25.4959 211.354 17.6787 211.354 12.4673C211.354 2.04447 211.354 -3.16695 198.326 2.04447C185.297 7.25589 187.903 9.8616 190.508 20.2844Z"/>
<path d="M198.325 622.204C195.72 627.415 193.114 679.529 200.931 679.529C208.748 676.923 203.537 630.021 198.325 622.204Z"/>
<path d="M148.817 244.376C135.788 226.136 146.211 265.221 154.028 275.644C164.451 288.673 167.056 275.644 159.239 260.01C154.028 254.798 151.422 249.587 148.817 244.376Z"/>
<path d="M55.0112 374.661C55.0112 379.872 70.6455 353.815 70.6455 353.815C73.2512 348.604 104.52 306.913 104.52 306.913C101.914 304.307 86.2798 322.547 83.674 325.153C75.8569 335.575 65.4341 353.815 57.6169 366.844C57.6169 369.45 55.0112 372.055 55.0112 374.661Z"/>
<path d="M195.72 676.923C187.903 687.346 198.325 757.7 198.325 747.278C198.325 734.249 198.325 721.22 198.325 710.798C198.325 705.586 200.931 676.923 195.72 676.923Z"/>
<path d="M159.24 596.146C169.663 593.541 174.874 611.781 172.269 596.146C172.269 593.541 156.634 544.032 159.24 559.666C159.24 564.878 156.634 590.935 159.24 596.146Z"/>
<path d="M91.4912 306.912C88.8855 314.73 96.7027 306.912 99.3084 304.307C107.125 299.095 125.365 293.884 122.76 280.855C120.154 273.038 96.7027 299.095 94.0969 301.701C94.0969 304.307 91.4912 304.307 91.4912 306.912Z"/>
<path d="M70.6455 377.267C81.0683 369.45 107.125 327.758 112.337 314.73C117.548 299.095 117.548 291.278 109.731 309.518C96.7026 332.97 86.2798 351.21 73.2512 374.661L70.6455 377.267Z"/>
<path d="M172.269 575.301C167.058 590.935 193.115 593.541 187.904 577.906C187.904 572.695 180.086 570.089 172.269 575.301Z"/>
<path d="M21.1379 387.69C8.10939 398.112 44.5893 392.901 47.195 382.478C49.8008 372.055 26.3494 385.084 21.1379 387.69Z"/>
<path d="M65.4348 379.873C73.2519 366.844 86.2805 348.604 91.4919 335.575C107.126 306.913 99.309 317.335 86.2805 338.181C86.2805 338.181 57.6177 387.69 65.4348 379.873Z"/>
<path d="M200.931 101.061C216.565 124.513 211.354 119.301 221.777 103.667C229.594 95.8501 200.931 95.8501 200.931 101.061Z"/>
<path d="M167.058 132.33C174.875 129.724 182.692 124.513 187.903 116.696C190.509 108.879 167.058 124.513 164.452 124.513C151.423 132.33 146.212 132.33 167.058 132.33Z"/>
<path d="M97.9161 275.644C100.522 275.644 95.3104 257.404 95.3104 252.193C92.7046 233.953 97.9161 220.924 105.733 205.29C108.339 197.473 100.522 205.29 97.9161 215.713C92.7046 228.741 87.4932 265.221 97.9161 275.644Z"/>
<path d="M161.846 241.77C133.183 218.318 161.846 267.827 167.057 254.798C167.057 249.587 164.451 244.376 161.846 241.77Z"/>
<path d="M198.325 778.546C195.72 765.517 187.902 801.997 193.114 804.603C198.325 809.814 200.931 781.152 198.325 778.546Z"/>
<path d="M211.355 77.61C224.383 77.61 232.2 72.3986 221.778 72.3986C216.566 72.3986 208.749 72.3986 203.538 72.3986C198.326 72.3986 193.115 72.3986 198.326 75.0043C200.932 77.61 208.749 77.61 211.355 77.61Z"/>
<path d="M187.902 35.9187C190.508 43.7358 193.114 28.1016 208.748 35.9187C216.565 38.5244 200.931 12.4673 190.508 28.1016C187.902 30.7073 187.902 33.313 187.902 35.9187Z"/>
<path d="M226.988 22.8901C219.171 22.8901 211.354 38.5244 219.171 33.313C232.2 28.1016 237.411 46.3415 237.411 33.313C234.805 28.1016 232.2 22.8901 226.988 22.8901Z"/>
<path d="M159.24 218.318C143.606 207.896 159.24 233.953 161.846 236.558C167.057 241.77 172.269 231.347 159.24 218.318Z"/>
<path d="M21.1372 447.621C21.1372 445.015 36.7715 416.352 28.9544 418.958C23.7429 421.564 10.7144 452.832 21.1372 447.621Z"/>
<path d="M98.4796 291.139C108.902 288.534 119.325 275.505 121.931 267.688C124.537 259.871 111.508 272.899 111.508 275.505C111.508 275.505 90.6624 293.745 98.4796 291.139Z"/>
<path d="M213.96 67.1872C216.566 67.1872 232.2 69.793 226.989 64.5815C221.778 59.3701 195.72 64.5815 198.326 67.1872C200.932 69.793 211.355 67.1872 213.96 67.1872Z"/>
<path d="M0.291775 405.93C5.5032 411.141 23.7432 398.112 15.926 392.901C13.3203 392.901 -2.31394 400.718 0.291775 405.93Z"/>
<path d="M190.508 46.3415C198.325 48.9472 208.748 43.7358 208.748 41.1301C208.748 38.5244 190.508 38.5244 190.508 41.1301C187.902 43.7358 187.902 46.3415 190.508 46.3415Z"/>
<path d="M36.7717 445.015C47.1946 424.17 41.9832 408.535 31.5603 439.804C28.9546 445.015 31.5603 450.227 36.7717 445.015Z"/>
<path d="M15.9263 413.747C13.3205 416.352 -2.31372 442.409 5.50341 437.198C10.7148 434.592 23.7434 413.747 15.9263 413.747Z"/>
<path d="M141 398.112C141 398.112 148.817 351.21 146.212 348.604C141 343.393 138.395 398.112 141 398.112Z"/>
<path d="M187.903 799.392C193.114 768.123 185.297 778.546 182.691 801.998C180.085 807.209 185.297 807.209 187.903 799.392Z"/>
<path d="M185.297 35.9187C185.297 33.313 190.508 12.4673 185.297 15.073C180.085 15.073 180.085 28.1015 180.085 30.7073C180.085 33.313 182.691 48.9472 185.297 35.9187Z"/>
<path d="M57.6169 405.93C70.6455 390.295 55.0112 372.055 55.0112 398.112C55.0112 398.112 55.0112 408.535 57.6169 405.93Z"/>
<path d="M195.721 85.4272C203.538 95.8501 216.566 95.8501 203.538 82.8215C200.932 80.2158 187.904 75.0044 195.721 85.4272Z"/>
<path d="M172.268 382.478C174.874 403.324 187.902 385.084 177.479 377.267C174.874 374.661 172.268 379.872 172.268 382.478Z"/>
<path d="M221.778 90.6386C229.595 88.0329 237.412 69.7929 224.383 80.2158C216.566 85.4272 213.96 95.85 221.778 90.6386Z"/>
<path d="M190.508 77.61C187.903 72.3986 185.297 56.7643 180.085 59.3701C174.874 64.5815 190.508 88.0329 193.114 82.8215L190.508 77.61Z"/>
<path d="M206.142 796.786C206.142 755.095 198.325 801.998 203.537 804.603C206.142 807.209 206.142 796.786 206.142 796.786Z"/>
<path d="M146.212 218.318C138.395 215.713 143.606 233.953 151.423 231.347C154.029 226.136 148.817 220.924 146.212 218.318Z"/>
<path d="M52.4054 421.564C49.7997 424.169 41.9825 447.621 47.194 442.409C49.7997 442.409 57.6168 418.958 52.4054 421.564Z"/>
<path d="M180.086 593.541C177.48 596.146 180.086 601.358 182.691 609.175C185.297 614.386 187.903 598.752 187.903 596.146C190.509 588.329 187.903 593.541 180.086 593.541Z"/>
<path d="M185.298 56.7644C187.903 61.9758 193.115 72.3986 195.72 64.5815C195.72 61.9758 195.72 56.7644 193.115 54.1587C187.903 51.5529 182.692 54.1587 185.298 56.7644Z"/>
<path d="M198.325 809.815C190.508 820.237 206.143 825.449 203.537 812.42C203.537 809.815 200.931 809.815 198.325 809.815Z"/>
<path d="M180.085 791.575C190.508 768.123 169.663 801.997 169.663 801.997C174.874 809.815 180.085 791.575 180.085 791.575Z"/>
<path d="M187.903 132.33C203.537 137.541 190.509 119.301 190.509 119.301C187.903 121.907 185.297 132.33 187.903 132.33Z"/>
<path d="M203.537 56.7643C203.537 48.9472 203.537 48.9472 195.72 51.5529C190.508 51.5529 198.325 59.3701 198.325 59.3701C200.931 59.3701 203.537 59.3701 203.537 56.7643Z"/>
<path d="M159.24 213.107C161.845 215.713 174.874 223.53 169.663 215.713C167.057 213.107 161.845 210.501 159.24 213.107Z"/>
<path d="M154.029 207.896C148.817 200.078 138.394 210.501 148.817 210.501C151.423 213.107 154.029 210.501 154.029 207.896Z"/>
<path d="M185.297 817.632C187.903 825.449 195.72 809.815 187.903 812.42C185.297 812.42 185.297 815.026 185.297 817.632Z"/>
<path d="M169.663 374.661C174.874 382.478 169.663 364.238 164.451 364.238C164.451 369.45 167.057 372.055 169.663 374.661Z"/>
<path d="M177.479 815.026C177.479 820.237 185.297 812.42 180.085 809.815C177.479 809.815 177.479 815.026 177.479 815.026Z"/>
<path d="M169.663 815.026C172.268 820.237 180.085 807.209 172.268 809.815C172.268 809.815 169.663 812.42 169.663 815.026Z"/>
<path d="M164.451 812.42C167.057 815.026 172.268 807.209 167.057 807.209C164.451 809.815 164.451 809.815 164.451 812.42Z"/>
</g>
</svg>
